Coordinates
version=1
nRows=4
nColumns=107
inDegrees=yes

Units are S.I. units (second, meters, Newtons, ...)
If the header above contains a line with 'inDegrees', this indicates whether rotational values are in degrees (yes) or radians (no).

endheader
time	sternoclavicular_r2	sternoclavicular_r3	unrotscap_r3	unrotscap_r2	acromioclavicular_r2	acromioclavicular_r3	acromioclavicular_r1	unrothum_r1	unrothum_r3	unrothum_r2	elv_angle	shoulder_elv	shoulder1_r2	shoulder_rot	elbow_flexion	pro_sup	deviation	flexion	proximal_distal_r1	proximal_distal_r3	cmc_flexion	cmc_abduction	mp_flexion	ip_flexion	mcp2_flexion	mcp2_abduction	pm2_flexion	md2_flexion	mcp3_flexion	mcp3_abduction	pm3_flexion	md3_flexion	mcp4_flexion	mcp4_abduction	pm4_flexion	md4_flexion	mcp5_flexion	mcp5_abduction	pm5_flexion	md5_flexion	bicpt_tx	bicpt_ty	bicpt_tz	bicpt2_tx	bicpt2_ty	bicpt2_tz	ptpt_tx	ptpt_ty	ptpt_tz	FCUpt_tx	FCUpt_ty	FCUpt_tz	EDCpt_tx	EDCpt_ty	EDCpt_tz	APLpt_tx	APLpt_ty	APLpt_tz	FPLpt_tx	FPLpt_ty	FPLpt_tz	FPLpt2_tx	FPLpt2_ty	FPLpt2_tz	PEC1pt2_tx	PEC1pt2_ty	PEC1pt2_tz	PEC1pt3_tx	PEC1pt3_ty	PEC1pt3_tz	PEC2pt2_tx	PEC2pt2_ty	PEC2pt2_tz	PEC2pt3_tx	PEC2pt3_ty	PEC2pt3_tz	PEC3pt2_tx	PEC3pt2_ty	PEC3pt2_tz	PEC3pt3_tx	PEC3pt3_ty	PEC3pt3_tz	DELT2pt2a_tx	DELT2pt2a_ty	DELT2pt2a_tz	DELT2pt2_tx	DELT2pt2_ty	DELT2pt2_tz	LAT1pt2_tx	LAT1pt2_ty	LAT1pt2_tz	LAT1pt3_tx	LAT1pt3_ty	LAT1pt3_tz	LAT2pt2_tx	LAT2pt2_ty	LAT2pt2_tz	LAT2pt3_tx	LAT2pt3_ty	LAT2pt3_tz	LAT3pt2_tx	LAT3pt2_ty	LAT3pt2_tz	LAT3pt3_tx	LAT3pt3_ty	LAT3pt3_tz
      0.86666667	     -0.31779880	      0.13460457	     -0.13460457	      0.31779880	     -0.06434779	      0.52003622	      0.23375270	     -0.23375270	     -0.52003622	      0.06434779	    100.58515113	     75.24169063	     -1.75554207	    -30.94230688	     30.75876293	     67.34403157	      0.25934385	      0.20870846	      0.29691395	      0.10435423	     31.73696487	    -18.65077343	      4.28498270	      5.17602291	     -4.37799553	     12.21063304	     18.70759927	     -8.16053211	      0.05615980	      3.90970898	     13.73834315	     13.92215799	      1.66847022	      0.59537547	      8.85259829	     20.51270869	     -5.01358883	    -13.89372186	     12.27706535	      5.22661964	      0.00091740	     -0.03112542	     -0.00486785	      0.01577026	     -0.01855577	     -0.00402687	      0.00257404	     -0.06811754	     -0.00547492	      0.01064858	     -0.18282009	     -0.00029900	     -0.00808126	      0.00260795	     -0.00025249	     -0.00025001	     -0.00010000	     -0.00050002	     -0.00032002	     -0.00096005	     -0.00054003	     -0.00001061	     -0.00023385	     -0.00028062	      0.00246626	      0.00865280	      0.00601934	     -0.00806759	      0.01947925	     -0.01847603	      0.00246626	      0.00865280	      0.00601934	      0.00054341	      0.01805802	     -0.00948882	      0.00391276	      0.00481171	      0.01588099	      0.00000000	      0.00756996	      0.00000000	     -0.00706436	     -0.03264656	     -0.00624058	      0.01928989	     -0.00078938	     -0.00796291	     -0.00087782	      0.01471394	     -0.00601934	      0.00242446	      0.02123490	     -0.01755641	     -0.00589394	      0.01274930	     -0.00539233	     -0.01228949	      0.02691983	     -0.03013850	     -0.02307414	      0.01425413	     -0.00723157	     -0.01529916	      0.03109993	     -0.03766268
      0.90000000	     -0.31744770	      0.13445586	     -0.13445586	      0.31744770	     -0.06427670	      0.51946170	      0.23349446	     -0.23349446	     -0.51946170	      0.06427670	    100.61237439	     75.15856532	     -1.75601720	    -31.27716843	     31.00104512	     70.95197854	      0.26427068	      0.21322890	      0.30148895	      0.10661445	     30.29470862	    -18.30310673	      1.43613818	      3.82927609	     -2.38611680	     11.99619406	     21.57262486	     -7.11160658	      3.93304171	      4.19704232	     15.21888099	     14.60128798	      6.74521735	      0.19553787	     11.13227865	     20.60439613	      0.32347372	    -13.87451789	     14.35111026	      5.23593640	      0.00092542	     -0.03115319	     -0.00487233	      0.01553637	     -0.01862159	     -0.00349424	      0.00230745	     -0.06828992	     -0.00576556	      0.01104429	     -0.18271517	     -0.00024541	     -0.00851422	      0.00278718	     -0.00033539	     -0.00025624	     -0.00010250	     -0.00051248	     -0.00032799	     -0.00098396	     -0.00055348	     -0.00000894	     -0.00024750	     -0.00029700	      0.00246353	      0.00864324	      0.00601269	     -0.00805868	      0.01945773	     -0.01845562	      0.00246353	      0.00864324	      0.00601269	      0.00054281	      0.01803807	     -0.00947834	      0.00390958	      0.00480640	      0.01587310	      0.00000000	      0.00755313	      0.00000000	     -0.00705656	     -0.03261049	     -0.00622660	      0.01943329	     -0.00080092	     -0.00813047	     -0.00087685	      0.01469769	     -0.00601269	      0.00242178	      0.02121144	     -0.01753701	     -0.00588743	      0.01273521	     -0.00538637	     -0.01227591	      0.02689009	     -0.03010521	     -0.02304865	      0.01423838	     -0.00722358	     -0.01528225	      0.03106557	     -0.03762107
      0.93333333	     -0.31730463	      0.13439526	     -0.13439526	      0.31730463	     -0.06424773	      0.51922757	      0.23338922	     -0.23338922	     -0.51922757	      0.06424773	    100.56136982	     75.12469045	     -1.75512700	    -31.26221282	     31.24663424	     73.45488609	      0.27170193	      0.22492405	      0.30831401	      0.11246202	     26.99723396	    -16.96828138	     -0.45444586	      3.14325982	      0.17761250	     11.64230830	     24.24175027	     -6.07961603	      7.07968098	      4.51607529	     17.54685921	     15.51359999	     10.77448258	     -0.27611784	     13.84038786	     21.50260719	      4.17266022	    -13.85327745	     16.73813241	      5.34191691	      0.00093354	     -0.03118134	     -0.00487686	      0.01535665	     -0.01868830	     -0.00311404	      0.00212251	     -0.06840950	     -0.00596719	      0.01132115	     -0.18264022	     -0.00020247	     -0.00881457	      0.00291387	     -0.00039705	     -0.00027249	     -0.00010900	     -0.00054498	     -0.00034879	     -0.00104636	     -0.00058858	     -0.00000370	     -0.00027001	     -0.00032402	      0.00246242	      0.00863935	      0.00600998	     -0.00805504	      0.01944896	     -0.01844730	      0.00246242	      0.00863935	      0.00600998	      0.00054257	      0.01802994	     -0.00947407	      0.00390829	      0.00480423	      0.01586989	      0.00000000	      0.00754628	      0.00000000	     -0.00705338	     -0.03259580	     -0.00622091	      0.01942702	     -0.00080040	     -0.00812287	     -0.00087646	      0.01469106	     -0.00600998	      0.00242069	      0.02120187	     -0.01752911	     -0.00588477	      0.01272947	     -0.00538394	     -0.01227038	      0.02687797	     -0.03009164	     -0.02303826	      0.01423197	     -0.00722032	     -0.01527537	      0.03105156	     -0.03760411
      0.96666667	     -0.31779848	      0.13460444	     -0.13460444	      0.31779848	     -0.06434773	      0.52003570	      0.23375247	     -0.23375247	     -0.52003570	      0.06434773	    100.36043157	     75.24161471	     -1.75161997	    -30.65064879	     31.42723074	     76.25752588	      0.27898547	      0.22679590	      0.31491586	      0.11339795	     24.36252414	    -15.68802110	     -2.91173718	      2.02364026	      2.73122845	     11.71247332	     27.05656810	     -4.80488963	     10.61660515	      5.06406280	     19.58083125	     16.36010109	     15.19199406	     -0.57376740	     16.45748307	     22.13705121	      8.88875121	    -13.79065110	     19.57148355	      5.31515835	      0.00093952	     -0.03120204	     -0.00488019	      0.01513840	     -0.01873736	     -0.00267788	      0.00191543	     -0.06854341	     -0.00619295	      0.01163347	     -0.18255418	     -0.00014880	     -0.00915088	      0.00305803	     -0.00047011	     -0.00027512	     -0.00011005	     -0.00055024	     -0.00035215	     -0.00105646	     -0.00059426	      0.00000161	     -0.00027933	     -0.00033519	      0.00246626	      0.00865279	      0.00601933	     -0.00806758	      0.01947923	     -0.01847601	      0.00246626	      0.00865279	      0.00601933	      0.00054341	      0.01805800	     -0.00948881	      0.00391275	      0.00481171	      0.01588098	      0.00000000	      0.00756994	      0.00000000	     -0.00706436	     -0.03264653	     -0.00624056	      0.01916362	     -0.00077936	     -0.00781819	     -0.00087782	      0.01471393	     -0.00601933	      0.00242445	      0.02123487	     -0.01755639	     -0.00589393	      0.01274928	     -0.00539232	     -0.01228947	      0.02691980	     -0.03013847	     -0.02307411	      0.01425412	     -0.00723156	     -0.01529914	      0.03109989	     -0.03766264
